<svg width="55" height="60" viewBox="0 0 55 60" fill="none" xmlns="http://www.w3.org/2000/svg">
<g clip-path="url(#clip0_4_37)">
<path d="M1.73733 23.2164C1.73698 23.2155 1.73663 23.2145 1.73627 23.2136C1.73662 23.2145 1.73698 23.2155 1.73733 23.2164ZM1.73733 23.2164C1.73734 23.2164 1.73734 23.2164 1.73734 23.2164L2.19727 23.0404L1.73733 23.2164ZM9.341 2.09508C1.86602 5.32026 -1.44103 14.6431 1.66687 23.0293L1.65715 23.0521L1.75061 23.2537L2.73378 25.3743C6.04149 32.5085 8.53468 39.9872 10.167 47.6709L11.7271 55.0151L11.7292 55.0251L11.7318 55.0351C12.3285 57.3687 14.4367 59 16.8503 59C19.4426 59 21.6535 57.1243 22.0656 54.5705L24.265 40.9392C24.4848 39.5772 25.6649 38.5736 27.0525 38.5736C28.44 38.5736 29.6202 39.5772 29.8399 40.9392L32.0393 54.5705C32.4514 57.1243 34.6623 59 37.2546 59C39.6682 59 41.7763 57.3687 42.3731 55.0351L42.3756 55.0251L42.3778 55.0151L43.9379 47.6709C45.5702 39.9872 48.0634 32.5085 51.3711 25.3743L52.3543 23.2537L52.4476 23.0523L52.438 23.0294C55.546 14.6433 52.2389 5.32028 44.7639 2.09508C41.1975 0.556291 37.3372 0.69627 33.8991 2.15739C29.9336 3.84261 24.1712 3.8426 20.2057 2.15738C16.7676 0.696277 12.9074 0.556307 9.341 2.09508Z" fill="url(#paint0_linear_4_37)" stroke="#44C6E9"/>
</g>
<defs>
<linearGradient id="paint0_linear_4_37" x1="7.89767" y1="1.5" x2="38.9282" y2="56.4365" gradientUnits="userSpaceOnUse">
<stop stop-color="#F0F6F9"/>
<stop offset="1" stop-color="#CDDFF2"/>
</linearGradient>
<clipPath id="clip0_4_37">
<rect width="54.1049" height="60" fill="white"/>
</clipPath>
</defs>
</svg>
